Coordinates
version=1
nRows=11
nColumns=32
inDegrees=yes

Units are S.I. units (second, meters, Newtons, ...)
If the header above contains a line with 'inDegrees', this indicates whether rotational values are in degrees (yes) or radians (no).

endheader
time	pelvis_tilt	pelvis_list	pelvis_rotation	pelvis_tx	pelvis_ty	pelvis_tz	hip_flexion_r	hip_adduction_r	hip_rotation_r	knee_angle_r	knee_adduction_r	med_cond_adduction_r	lat_cond_adduction_r	patella_r_constrained_knee_angle	ankle_angle_r	subtalar_angle_r	mtp_angle_r	hip_flexion_l	hip_adduction_l	hip_rotation_l	knee_angle_l	knee_adduction_l	med_cond_adduction_l	lat_cond_adduction_l	patella_l_constrained_knee_angle	ankle_angle_l	subtalar_angle_l	mtp_angle_l	lumbar_extension	lumbar_bending	lumbar_rotation
      0.81000000	     -8.37444988	      3.33631676	     -4.90275196	      0.19693916	      0.86436885	     -1.18880731	     28.34230201	    -29.60977142	    -18.14015025	    -33.06507652	      2.58861611	      0.00000000	      0.00000000	     -0.57709445	      1.13427563	      9.15106487	     -0.00000000	     22.77029692	    -25.89898211	    -33.88824425	    -32.64950199	     -0.60920204	     -0.00000000	     -0.00000000	     -0.56984131	      2.34817103	     17.87331282	      0.00000000	     -8.55145010	     -3.05510138	      0.76703858
      0.81500000	     -8.60389267	      3.22719857	     -4.95639026	      0.19601771	      0.86231387	     -1.18859769	     29.08797087	    -29.58201104	    -17.81482306	    -33.82030514	      2.63332233	      0.00000000	     -0.00000000	     -0.59027568	      1.43523157	      9.18589182	     -0.00000000	     23.46202673	    -26.37992129	    -33.62022297	    -33.52056809	     -0.50644732	     -0.00000000	     -0.00000000	     -0.58504428	      2.68172521	     17.88153666	      0.00000000	     -8.41731182	     -2.97390847	      0.80029637
      0.82000000	     -8.81246178	      3.29120112	     -5.02792465	      0.19507312	      0.86021350	     -1.18835369	     29.92689981	    -29.75232299	    -17.37276343	    -34.65128858	      2.70221003	      0.00000000	      0.00000000	     -0.60477908	      1.75839255	      9.24376094	     -0.00000000	     24.09077310	    -26.62433292	    -33.45506129	    -34.30341810	     -0.49287812	     -0.00000000	     -0.00000000	     -0.59870759	      3.00247093	     17.88819995	     -0.00000000	     -8.30561840	     -2.98823378	      1.04324476
      0.82500000	     -9.05231041	      3.11463243	     -5.05381360	      0.19409925	      0.85808057	     -1.18817042	     30.63756707	    -29.64624158	    -17.16513051	    -35.38208748	      2.69803385	     -0.00000000	     -0.00000000	     -0.61753392	      2.05738097	      9.25389581	      0.00000000	     24.83827799	    -27.19050306	    -33.14732469	    -35.20771572	     -0.37837035	      0.00000000	      0.00000000	     -0.61449056	      3.30713113	     17.93308376	      0.00000000	     -8.18303508	     -2.86363548	      1.00272931
      0.83000000	     -9.26628612	      3.28011647	     -5.10804540	      0.19316630	      0.85588853	     -1.18799915	     31.52200588	    -29.96013361	    -16.64562845	    -36.24139859	      2.84877227	     -0.00000000	     -0.00000000	     -0.63253173	      2.36922908	      9.29560521	      0.00000000	     25.45739600	    -27.27761801	    -33.04058530	    -35.92226973	     -0.43634389	     -0.00000000	     -0.00000000	     -0.62696188	      3.63020040	     17.95047443	      0.00000000	     -8.05438866	     -3.07102103	      1.08432029
      0.83500000	     -9.52966296	      3.03878272	     -5.18912810	      0.19215718	      0.85362326	     -1.18768551	     32.26997967	    -29.73759626	    -16.44250537	    -36.98280621	      2.80941980	      0.00000000	      0.00000000	     -0.64547174	      2.67990607	      9.30473340	     -0.00000000	     26.20830746	    -27.96218591	    -32.71810123	    -36.84103262	     -0.26320753	     -0.00000000	     -0.00000000	     -0.64299732	      3.98471830	     18.00781780	     -0.00000000	     -7.91648304	     -2.74734095	      1.30314845
      0.84000000	     -9.73646949	      3.08559151	     -5.19922058	      0.19122384	      0.85146316	     -1.18761279	     33.03186807	    -29.91964887	    -16.10160859	    -37.74664867	      2.88560866	     -0.00000000	     -0.00000000	     -0.65880330	      2.95919177	      9.39522589	     -0.00000000	     26.87606290	    -28.15874550	    -32.54674162	    -37.56846191	     -0.33666038	     -0.00000000	     -0.00000000	     -0.65569336	      4.24240948	     18.03137892	      0.00000000	     -7.82147869	     -2.85211095	      1.27803844
      0.84500000	    -10.00231281	      3.00156900	     -5.22874376	      0.19022111	      0.84916118	     -1.18745231	     33.81405045	    -29.91611531	    -15.82542647	    -38.48970837	      2.91136735	      0.00000000	      0.00000000	     -0.67177214	      3.25532811	      9.46431649	      0.00000000	     27.64103345	    -28.56923435	    -32.28579257	    -38.38507853	     -0.31673098	      0.00000000	      0.00000000	     -0.66994600	      4.52433260	     18.08128379	      0.00000000	     -7.68183749	     -2.79802493	      1.29622466
      0.85000000	    -10.23247410	      2.89434931	     -5.28279548	      0.18925140	      0.84685826	     -1.18725224	     34.56647342	    -29.88565779	    -15.57370443	    -39.25356523	      2.93009987	      0.00000000	      0.00000000	     -0.68510396	      3.55133239	      9.50033316	     -0.00000000	     28.34120585	    -29.02595255	    -32.04825879	    -39.19431398	     -0.25997042	      0.00000000	      0.00000000	     -0.68406983	      4.83805324	     18.12865660	      0.00000000	     -7.55983851	     -2.67777952	      1.38997617
      0.85500000	    -10.49422614	      2.80089821	     -5.31090904	      0.18826461	      0.84449523	     -1.18709997	     35.33919248	    -29.87660000	    -15.32488451	    -40.00404729	      2.95656038	     -0.00000000	     -0.00000000	     -0.69820234	      3.83809709	      9.54913793	      0.00000000	     29.09993890	    -29.44393683	    -31.77714705	    -39.99799634	     -0.22707945	     -0.00000000	     -0.00000000	     -0.69809673	      5.14014918	     18.18077802	      0.00000000	     -7.41547066	     -2.59483777	      1.42788830
      0.86000000	    -10.76884927	      2.55773653	     -5.38729971	      0.18726764	      0.84210022	     -1.18682195	     36.06193217	    -29.65172947	    -15.14715053	    -40.70905635	      2.92563480	      0.00000000	      0.00000000	     -0.71050707	      4.12070581	      9.56402971	      0.00000000	     29.87862243	    -30.08987545	    -31.42203823	    -40.84648341	     -0.09257459	     -0.00000000	     -0.00000000	     -0.71290562	      5.44075390	     18.23631021	      0.00000000	     -7.27499066	     -2.26238614	      1.65103290
